<?xml version="1.0" encoding="utf-8"?>
<!-- Generator: Adobe Illustrator 17.0.0, SVG Export Plug-In . SVG Version: 6.00 Build 0)  -->
<!DOCTYPE svg PUBLIC "-//W3C//DTD SVG 1.1//EN" "http://www.w3.org/Graphics/SVG/1.1/DTD/svg11.dtd">
<svg version="1.1" id="Layer_1" xmlns="http://www.w3.org/2000/svg" xmlns:xlink="http://www.w3.org/1999/xlink" x="0px" y="0px"
	 width="50px" height="50px" viewBox="0 0 50 50" style="enable-background:new 0 0 50 50;" xml:space="preserve">
<g>
	<path style="fill:#0A0A0A;" d="M47.1,24.7c0-2.2-0.3-4.2-0.9-6.2c2-2,3.2-4.7,3.2-7.7c0-6-4.8-10.8-10.8-10.8c-3,0-5.7,1.2-7.7,3.2
		c-2-0.6-4.1-0.9-6.2-0.9c-2.2,0-4.2,0.3-6.2,0.9c-2-2-4.7-3.2-7.7-3.2C4.8,0,0,4.8,0,10.8c0,3,1.2,5.7,3.2,7.7
		c-0.6,2-0.9,4.1-0.9,6.2c0,7.2,3.4,13.7,8.8,17.8L8.4,47C8,47.8,8.2,48.7,9,49.2c0.2,0.1,0.5,0.2,0.8,0.2c0.5,0,1-0.3,1.3-0.8
		l2.6-4.4c3.3,1.8,7,2.9,11,2.9c3.9,0,7.5-1,10.7-2.7l2.5,4.3c0.3,0.5,0.8,0.8,1.3,0.8c0.3,0,0.5-0.1,0.8-0.2c0.7-0.4,1-1.4,0.6-2.1
		L38,42.7C43.5,38.6,47.1,32,47.1,24.7z M38.6,3.1c4.3,0,7.7,3.5,7.7,7.7c0,1.6-0.5,3.1-1.4,4.3c-2.2-4.7-6-8.5-10.7-10.7
		C35.5,3.6,37,3.1,38.6,3.1z M3.1,10.8c0-4.3,3.5-7.7,7.7-7.7c1.6,0,3.1,0.5,4.3,1.4c-4.7,2.2-8.5,6-10.7,10.7
		C3.6,13.9,3.1,12.4,3.1,10.8z M24.7,44C14,44,5.4,35.3,5.4,24.7C5.4,14.1,14,5.4,24.7,5.4C35.3,5.4,44,14.1,44,24.7
		C44,35.3,35.3,44,24.7,44z"/>
	<path style="fill:#0A0A0A;" d="M24.7,8.5c-0.9,0-1.5,0.7-1.5,1.5v14l-8,8c-0.6,0.6-0.6,1.6,0,2.2c0.3,0.3,0.7,0.5,1.1,0.5
		c0.4,0,0.8-0.2,1.1-0.5l8.5-8.5c0.3-0.3,0.5-0.7,0.5-1.1V10C26.2,9.2,25.5,8.5,24.7,8.5z"/>
</g>
</svg>
