<?xml version="1.0" encoding="utf-8"?>
<!-- Generator: Adobe Illustrator 17.0.0, SVG Export Plug-In . SVG Version: 6.00 Build 0)  -->
<!DOCTYPE svg PUBLIC "-//W3C//DTD SVG 1.1//EN" "http://www.w3.org/Graphics/SVG/1.1/DTD/svg11.dtd">
<svg version="1.1" id="Layer_1" xmlns="http://www.w3.org/2000/svg" xmlns:xlink="http://www.w3.org/1999/xlink" x="0px" y="0px"
	 width="50px" height="50px" viewBox="0 0 50 50" style="enable-background:new 0 0 50 50;" xml:space="preserve">
<g>
	<path style="fill:#020202;" d="M25,0.1c-9.9,0-17.9,8-17.9,17.9c0,4,1.5,7.7,3.6,10.7l13,20.4c0.2,0.3,0.5,0.6,0.9,0.7
		c0.1,0,0.3,0.1,0.4,0.1c0.1,0,0.2,0,0.3,0c0.1,0,0.1,0,0.2,0c0.4-0.1,0.7-0.4,0.9-0.7l13.2-20.8c0,0,0,0,0,0c0,0,0,0,0,0
		c0,0,0,0,0,0c2.1-2.9,3.3-6.5,3.3-10.4C42.9,8.1,34.9,0.1,25,0.1z M37.9,25.2L37.9,25.2l-0.9,1.4L25,45.4L13.3,27l0-0.1l0-0.1
		c-1.4-2-3-5.2-3-8.9c0-8.1,6.6-14.8,14.8-14.8c8.1,0,14.8,6.6,14.8,14.8C39.8,20.5,39.1,23,37.9,25.2z"/>
	<path style="fill:#020202;" d="M25,10.2c-4.3,0-7.8,3.5-7.8,7.8s3.5,7.8,7.8,7.8c4.3,0,7.8-3.5,7.8-7.8S29.3,10.2,25,10.2z
		 M25,22.6c-2.6,0-4.6-2.1-4.6-4.6c0-2.6,2.1-4.6,4.6-4.6c2.6,0,4.6,2.1,4.6,4.6C29.6,20.6,27.6,22.6,25,22.6z"/>
</g>
</svg>
