<?xml version="1.0" encoding="utf-8"?>
<!-- Generator: Adobe Illustrator 17.0.0, SVG Export Plug-In . SVG Version: 6.00 Build 0)  -->
<!DOCTYPE svg PUBLIC "-//W3C//DTD SVG 1.1//EN" "http://www.w3.org/Graphics/SVG/1.1/DTD/svg11.dtd">
<svg version="1.1" id="Layer_1" xmlns="http://www.w3.org/2000/svg" xmlns:xlink="http://www.w3.org/1999/xlink" x="0px" y="0px"
	 width="50px" height="50px" viewBox="0 0 50 50" style="enable-background:new 0 0 50 50;" xml:space="preserve">
<path d="M45.2,0H17.2c-2.6,0-4.7,2.1-4.7,4.7v3.1H4.7C2.1,7.8,0,9.9,0,12.5v21.8C0,36.9,2.1,39,4.7,39h1.6v9.4c0,0.6,0.4,1.2,1,1.4
	c0.2,0.1,0.4,0.1,0.6,0.1c0.4,0,0.8-0.2,1.1-0.5l9-9c0,0,0,0,0,0c1.2-1.2,2.3-1.4,3.9-1.4h10.9c1.5,0,2.9-0.7,3.7-1.9l4.5,4.5
	c0.3,0.3,0.7,0.5,1.1,0.5c0.2,0,0.4,0,0.6-0.1c0.6-0.2,1-0.8,1-1.4v-9.4h1.6c2.6,0,4.7-2.1,4.7-4.7V4.7C49.9,2.1,47.8,0,45.2,0z
	 M34.3,34.3c0,0.9-0.7,1.6-1.6,1.6H22.5l0,0c-0.7,0-1.5,0-2.2,0C17.8,35.9,15,39,15,39l0,0h0l-5.6,5.6v-4.8V39v-1.6
	c0-0.9-0.7-1.6-1.6-1.6H6.2v0H4.7c-0.9,0-1.6-0.7-1.6-1.6V12.5c0-0.9,0.7-1.6,1.6-1.6h28.1c0.9,0,1.6,0.7,1.6,1.6V34.3z M46.8,26.5
	c0,0.9-0.7,1.6-1.6,1.6h-1.6v0h-1.6c-0.9,0-1.6,0.7-1.6,1.6v1.6V32v4.8l-3.1-3.1V12.5c0-2.6-2.1-4.7-4.7-4.7H15.6V4.7
	c0-0.9,0.7-1.6,1.6-1.6h28.1c0.9,0,1.6,0.7,1.6,1.6V26.5z"/>
</svg>
