<?xml version="1.0" encoding="utf-8"?>
<!-- Generator: Adobe Illustrator 17.0.0, SVG Export Plug-In . SVG Version: 6.00 Build 0)  -->
<!DOCTYPE svg PUBLIC "-//W3C//DTD SVG 1.1//EN" "http://www.w3.org/Graphics/SVG/1.1/DTD/svg11.dtd">
<svg version="1.1" id="Layer_1" xmlns="http://www.w3.org/2000/svg" xmlns:xlink="http://www.w3.org/1999/xlink" x="0px" y="0px"
	 width="50px" height="50px" viewBox="0 0 50 50" enable-background="new 0 0 50 50" xml:space="preserve">
<path fill="#FFFFFF" d="M34.8,0.767H14.009c-1.438,0-2.544,1.106-2.544,2.544v20.57c0,1.438,1.106,2.544,2.544,2.544h9.621
	c-0.111,2.433-1.106,5.087-2.544,7.52c-1.659,2.654-5.198,5.64-5.308,5.64c-0.332,0.221-0.442,0.553-0.442,0.995
	c0,0.332,0.111,0.553,0.332,0.885l6.635,7.52c0,0,0.332,0.332,0.553,0.442c0.332,0.111,0.664,0.111,0.885-0.111
	c11.612-8.847,13.271-20.017,13.492-26.099V3.421C37.344,1.983,36.238,0.767,34.8,0.767"/>
</svg>
