<?xml version="1.0" encoding="utf-8"?>
<!-- Generator: Adobe Illustrator 17.0.0, SVG Export Plug-In . SVG Version: 6.00 Build 0)  -->
<!DOCTYPE svg PUBLIC "-//W3C//DTD SVG 1.1//EN" "http://www.w3.org/Graphics/SVG/1.1/DTD/svg11.dtd">
<svg version="1.1" id="Layer_1" xmlns="http://www.w3.org/2000/svg" xmlns:xlink="http://www.w3.org/1999/xlink" x="0px" y="0px"
	 width="50px" height="50px" viewBox="0 0 50 50" style="enable-background:new 0 0 50 50;" xml:space="preserve">
<path d="M45.2,7.2H4.8c-2.6,0-4.7,2.1-4.7,4.7v26.4c0,2.6,2.1,4.7,4.7,4.7h40.4c2.6,0,4.7-2.1,4.7-4.7V11.8
	C49.8,9.2,47.7,7.2,45.2,7.2z M46.4,39.2L33.6,26.5l13.1-13.1v24.8C46.7,38.6,46.6,38.9,46.4,39.2z M3.3,38.2V13.4l13,13L3.6,39.1
	C3.4,38.8,3.3,38.5,3.3,38.2z M18.5,28.6l3.9,3.9c0.7,0.7,1.7,1.1,2.7,1.1c1,0,1.9-0.4,2.7-1.1l3.8-3.8l11.1,11.1H7.3L18.5,28.6z
	 M45.2,10.3c0.1,0,0.2,0,0.2,0l-20,20c-0.2,0.2-0.4,0.2-0.5,0.2c-0.1,0-0.3,0-0.5-0.2l-20-20c0.1,0,0.2,0,0.2,0H45.2z"/>
</svg>
