<?xml version="1.0" encoding="utf-8"?>
<!-- Generator: Adobe Illustrator 17.0.0, SVG Export Plug-In . SVG Version: 6.00 Build 0)  -->
<!DOCTYPE svg PUBLIC "-//W3C//DTD SVG 1.1//EN" "http://www.w3.org/Graphics/SVG/1.1/DTD/svg11.dtd">
<svg version="1.1" id="Layer_1" xmlns="http://www.w3.org/2000/svg" xmlns:xlink="http://www.w3.org/1999/xlink" x="0px" y="0px"
	 width="50px" height="50px" viewBox="0 0 50 50" style="enable-background:new 0 0 50 50;" xml:space="preserve">
<g>
	<path d="M48.3,15.7H1.7c-0.8,0-1.5-0.7-1.5-1.5c0-0.8,0.7-1.5,1.5-1.5h46.5c0.8,0,1.5,0.7,1.5,1.5C49.8,15,49.1,15.7,48.3,15.7z"/>
	<path d="M48.3,37.4H1.7c-0.8,0-1.5-0.7-1.5-1.5s0.7-1.5,1.5-1.5h46.5c0.8,0,1.5,0.7,1.5,1.5S49.1,37.4,48.3,37.4z"/>
	<path d="M48.3,26.5H1.7c-0.8,0-1.5-0.7-1.5-1.5s0.7-1.5,1.5-1.5h46.5c0.8,0,1.5,0.7,1.5,1.5S49.1,26.5,48.3,26.5z"/>
</g>
</svg>
