<?xml version="1.0" encoding="utf-8"?>
<!-- Generator: Adobe Illustrator 17.0.0, SVG Export Plug-In . SVG Version: 6.00 Build 0)  -->
<!DOCTYPE svg PUBLIC "-//W3C//DTD SVG 1.1//EN" "http://www.w3.org/Graphics/SVG/1.1/DTD/svg11.dtd">
<svg version="1.1" id="Layer_1" xmlns="http://www.w3.org/2000/svg" xmlns:xlink="http://www.w3.org/1999/xlink" x="0px" y="0px"
	 width="50px" height="50px" viewBox="0 0 50 50" style="enable-background:new 0 0 50 50;" xml:space="preserve">
<g>
	<path d="M25,34.3c5.1,0,9.3-4.2,9.3-9.3V9.5c0-5.2-4.2-9.3-9.3-9.3c-5.1,0-9.3,4.2-9.3,9.3V25C15.7,30.1,19.9,34.3,25,34.3z
		 M18.8,9.5c0-3.4,2.8-6.2,6.2-6.2c3.4,0,6.2,2.8,6.2,6.2V25c0,3.4-2.8,6.2-6.2,6.2c-3.4,0-6.2-2.8-6.2-6.2V9.5z"/>
	<path d="M39,20.3c-0.9,0-1.6,0.7-1.6,1.6V25c0,6.9-5.6,12.4-12.4,12.4c-6.9,0-12.4-5.6-12.4-12.4v-3.1c0-0.9-0.7-1.6-1.6-1.6
		S9.5,21,9.5,21.9V25c0,8,6.1,14.7,14,15.5v6.3h-7.8c-0.9,0-1.6,0.7-1.6,1.6c0,0.9,0.7,1.6,1.6,1.6h18.6c0.9,0,1.6-0.7,1.6-1.6
		c0-0.9-0.7-1.6-1.6-1.6h-7.8v-6.3c7.8-0.8,14-7.4,14-15.5v-3.1C40.5,21,39.8,20.3,39,20.3z"/>
</g>
</svg>
