<?xml version="1.0" encoding="utf-8"?>
<!-- Generator: Adobe Illustrator 17.0.0, SVG Export Plug-In . SVG Version: 6.00 Build 0)  -->
<!DOCTYPE svg PUBLIC "-//W3C//DTD SVG 1.1//EN" "http://www.w3.org/Graphics/SVG/1.1/DTD/svg11.dtd">
<svg version="1.1" id="Layer_1" xmlns="http://www.w3.org/2000/svg" xmlns:xlink="http://www.w3.org/1999/xlink" x="0px" y="0px"
	 width="50px" height="50px" viewBox="0 0 50 50" enable-background="new 0 0 50 50" xml:space="preserve">
<path fill="#FFFFFF" d="M48.362,10.531c-0.731,0.438-3.215,1.315-5.408,1.462c1.462-0.731,3.508-3.215,4.092-5.262
	c-1.315,1.023-4.531,2.192-5.992,2.192l0,0C39.3,7.023,36.815,6,34.038,6c-5.262,0-9.646,4.385-9.646,9.646
	c0,0.731,0.146,1.462,0.292,2.192l0,0c-7.308-0.292-15.2-3.8-19.877-10.085c-2.923,5.115-0.438,10.669,2.923,12.715
	c-1.169,0.146-3.362,0-4.238-1.023c0,3.362,1.608,7.746,7.454,9.5C9.777,29.531,7.731,29.385,7,29.238
	c0.292,2.777,4.238,6.577,8.623,6.577c-1.608,1.754-7.308,4.969-13.885,3.946C5.977,42.392,11.238,44,16.646,44
	c15.638,0,27.623-12.569,27.038-28.208l0,0v-0.146V15.5C45.146,14.477,47.046,12.869,48.362,10.531z"/>
</svg>
